<svg width="120" height="120" viewBox="0 0 120 120" fill="none" xmlns="http://www.w3.org/2000/svg">
<g clip-path="url(#clip0_1_47)">
<path fill-rule="evenodd" clip-rule="evenodd" d="M37.8629 75.5645C46.7068 75.5645 53.8761 68.3951 53.8761 59.5513C53.8761 50.7075 46.7068 43.5381 37.8629 43.5381C29.0191 43.5381 21.8498 50.7075 21.8498 59.5513C21.8498 68.3951 29.0191 75.5645 37.8629 75.5645ZM37.8629 87.4142C53.2512 87.4142 65.7259 74.9396 65.7259 59.5513C65.7259 44.163 53.2512 31.6884 37.8629 31.6884C22.4747 31.6884 10 44.163 10 59.5513C10 74.9396 22.4747 87.4142 37.8629 87.4142Z" fill="#6E6B7B"/>
<path fill-rule="evenodd" clip-rule="evenodd" d="M81.5474 43.6476C72.7035 43.6476 65.5342 50.8169 65.5342 59.6608C65.5342 68.5046 72.7035 75.674 81.5474 75.674C90.3912 75.674 97.5606 68.5046 97.5606 59.6608C97.5606 50.8169 90.3912 43.6476 81.5474 43.6476ZM81.5474 31.7979C66.1591 31.7979 53.6844 44.2725 53.6844 59.6608C53.6844 75.0491 66.1591 87.5235 81.5474 87.5235C96.9359 87.5235 109.41 75.0491 109.41 59.6608C109.41 44.2725 96.9359 31.7979 81.5474 31.7979Z" fill="#6E6B7B"/>
<path fill-rule="evenodd" clip-rule="evenodd" d="M53.8318 61.5695C53.915 60.9085 53.9578 60.2347 53.9578 59.5511C53.9578 58.8949 53.9183 58.248 53.8416 57.6125C54.2607 51.8465 56.4343 46.5672 59.8311 42.3062C63.2053 46.5826 65.3529 51.8716 65.7432 57.6426C65.6601 58.3038 65.6172 58.9774 65.6172 59.6611C65.6172 60.3172 65.6567 60.9643 65.7334 61.5997C65.3144 67.3657 63.1407 72.6449 59.7438 76.906C56.3698 72.6297 54.2222 67.3405 53.8318 61.5695Z" fill="#6E6B7B"/>
<path fill-rule="evenodd" clip-rule="evenodd" d="M40.1386 77.7758C41.4725 74.7879 44.9761 73.447 47.9641 74.781C56.0616 78.396 61.722 86.5274 61.722 95.9926C61.722 108.813 51.3346 119.212 38.5135 119.212C32.1331 119.212 26.345 116.628 22.1561 112.464C19.8353 110.158 19.824 106.406 22.1308 104.085C24.4377 101.764 28.1891 101.753 30.5099 104.06C32.5698 106.108 35.3899 107.362 38.5135 107.362C44.7834 107.362 49.8723 102.275 49.8723 95.9926C49.8723 91.3685 47.1143 87.3789 43.1334 85.6011C40.1455 84.2672 38.8046 80.7638 40.1386 77.7758Z" fill="#6E6B7B"/>
<path fill-rule="evenodd" clip-rule="evenodd" d="M56.0709 80.7128C53.8702 78.1962 51.1359 76.16 48.0472 74.781C45.0592 73.447 41.5556 74.7879 40.2216 77.7758C38.8876 80.7638 40.2284 84.2672 43.2164 85.6011C43.809 85.8658 44.3745 86.1798 44.9079 86.5373C49.0893 85.4614 52.8909 83.4395 56.0709 80.7128Z" fill="#6E6B7B"/>
<path fill-rule="evenodd" clip-rule="evenodd" d="M79.2718 41.4358C77.9379 44.4237 74.4343 45.7646 71.4463 44.4306C63.3488 40.8156 57.6884 32.684 57.6884 23.2191C57.6884 10.3989 68.0757 -5.99143e-05 80.8968 -6.10352e-05C87.2773 -6.1593e-05 93.0655 2.58362 97.254 6.74739C99.5751 9.05422 99.5866 12.8056 97.2795 15.1264C94.9724 17.4472 91.2213 17.4584 88.9005 15.1515C86.8405 13.1039 84.0205 11.8496 80.8968 11.8496C74.627 11.8496 69.5381 16.9365 69.5381 23.2191C69.5381 27.843 72.2961 31.833 76.277 33.6102C79.2649 34.9442 80.6058 38.4478 79.2718 41.4358Z" fill="#6E6B7B"/>
<path fill-rule="evenodd" clip-rule="evenodd" d="M71.5281 44.0823C74.5161 45.4162 78.0197 44.0754 79.3536 41.0874C80.6876 38.0995 79.3467 34.5958 76.3588 33.2619C75.7664 32.9974 75.201 32.6839 74.6678 32.3266C70.4863 33.4023 66.6846 35.4242 63.5045 38.1506C65.7052 40.6672 68.4393 42.7033 71.5281 44.0823Z" fill="#6E6B7B"/>
</g>
<defs>
<clipPath id="clip0_1_47">
<rect width="99.4521" height="120" fill="white" transform="translate(10)"/>
</clipPath>
</defs>
</svg>
